<svg width="30" height="30" viewBox="0 0 30 30" fill="none" xmlns="http://www.w3.org/2000/svg">
<g clip-path="url(#clip0)">
<path d="M29.9425 5.71124C28.8362 6.19749 27.655 6.52874 26.4112 6.67999C27.6787 5.91624 28.6537 4.7125 29.115 3.27625C27.9262 3.97 26.6087 4.475 25.2062 4.75625C24.0862 3.5575 22.49 2.8075 20.7175 2.8075C17.3212 2.8075 14.5675 5.56124 14.5675 8.95374C14.5675 9.44125 14.6237 9.90999 14.7262 10.3587C9.61375 10.1175 5.0825 7.6625 2.05 3.95125C1.51625 4.85374 1.2175 5.9025 1.2175 7.045C1.2175 9.1825 2.305 11.0612 3.9525 12.165C2.94375 12.1325 1.995 11.855 1.1675 11.395V11.4712C1.1675 14.4525 3.28375 16.9387 6.1 17.505C5.58375 17.6437 5.03875 17.7187 4.48 17.7187C4.0875 17.7187 3.71125 17.6812 3.335 17.6112C4.12375 20.0525 6.39125 21.8325 9.09 21.8825C6.99 23.5312 4.32875 24.5137 1.4625 24.5137C0.975 24.5137 0.48875 24.485 0 24.43C2.73625 26.1725 5.96 27.1912 9.44625 27.1912C20.7637 27.1912 26.945 17.8212 26.945 9.70875C26.945 9.44749 26.945 9.18374 26.9262 8.92124C28.1275 8.05999 29.1762 6.97125 30.0012 5.73625L29.9425 5.71124Z" fill="#F3F4F4"/>
</g>
<defs>
<clipPath id="clip0">
<rect width="30" height="30" fill="white"/>
</clipPath>
</defs>
</svg>
