<svg width="150" height="150" viewBox="0 0 150 150" fill="none" xmlns="http://www.w3.org/2000/svg">
<g clip-path="url(#clip0)">
<path d="M143.395 0H114.176C112.96 0 111.974 0.985547 111.974 2.20166C111.974 3.41777 112.96 4.40332 114.176 4.40332H143.395C144.609 4.40332 145.597 5.39092 145.597 6.60498V50.9174C145.597 52.1314 144.609 53.119 143.395 53.119H82.8185V52.0605C82.8185 47.7656 79.3245 44.272 75.0299 44.272C70.7353 44.272 67.2413 47.7659 67.2413 52.0605V53.119H44.8148C43.599 53.119 42.6132 54.1046 42.6132 55.3207C42.6132 56.5368 43.599 57.5224 44.8148 57.5224H67.2413V96.3208L62.0121 90.4603C58.7842 86.8427 54.1524 84.7679 49.3043 84.7679C47.4976 84.7679 45.8678 85.6951 44.9446 87.2484C44.0215 88.8018 43.9863 90.6768 44.85 92.2638L53.618 108.371C55.7915 112.364 58.5639 115.978 61.858 119.113L71.202 128.003V132.72C68.9165 133.194 67.1941 135.223 67.1941 137.648V144.967C67.1941 147.742 69.4521 150 72.2276 150H106.941C109.716 150 111.974 147.742 111.974 144.967V137.648C111.974 135.276 110.324 133.287 108.112 132.757V127.863C110.118 125.332 116.34 116.042 116.34 98.1973V84.75C116.34 80.4554 112.846 76.9617 108.552 76.9617C107.116 76.9617 105.771 77.352 104.614 78.0319C103.467 75.1588 100.656 73.1232 97.3775 73.1232C95.9423 73.1232 94.5967 73.5135 93.4406 74.1935C92.2931 71.3203 89.4817 69.2848 86.2037 69.2848C84.9911 69.2848 83.8424 69.5631 82.8182 70.0597V57.5229H143.395C147.037 57.5229 150 54.5599 150 50.9183V6.60469C150 2.96279 147.037 0 143.395 0V0ZM86.204 73.6869C88.0708 73.6869 89.5896 75.2057 89.5896 77.0725V80.9112C89.5896 82.1273 90.5751 83.1129 91.7912 83.1129C93.0073 83.1129 93.9929 82.1273 93.9929 80.9112C93.9929 79.0444 95.5116 77.5257 97.3784 77.5257C99.2449 77.5257 100.764 79.0444 100.764 80.9112V84.7497C100.764 85.9658 101.749 86.9514 102.965 86.9514C104.181 86.9514 105.167 85.9658 105.167 84.7497C105.167 82.8829 106.686 81.3645 108.553 81.3645C110.419 81.3645 111.938 82.8829 111.938 84.7497V98.197C111.938 117.112 104.382 125.471 104.314 125.544C103.926 125.953 103.709 126.495 103.709 127.059V132.613H98.3906C97.1745 132.613 96.189 133.599 96.189 134.815C96.189 136.031 97.1745 137.017 98.3906 137.017H106.941C107.289 137.017 107.572 137.3 107.572 137.648V144.967C107.572 145.315 107.289 145.597 106.941 145.597H72.2276C71.8799 145.597 71.5972 145.315 71.5972 144.967V137.648C71.5972 137.3 71.8799 137.017 72.2276 137.017H89.5843C90.8004 137.017 91.7859 136.031 91.7859 134.815C91.7859 133.599 90.8004 132.613 89.5843 132.613H75.6053V127.059C75.6053 126.456 75.358 125.88 74.9212 125.464L64.8932 115.922C61.9315 113.104 59.4393 109.855 57.4852 106.265L48.7172 90.1582C48.5101 89.6027 48.7169 89.2544 49.304 89.1706C52.8987 89.1706 56.3329 90.7087 58.7262 93.3911L67.7159 103.466C68.9915 104.967 71.7053 104.01 71.6438 102.001V52.0605C71.6438 50.1937 73.1625 48.675 75.0293 48.675C76.8958 48.675 78.4146 50.1937 78.4146 52.0605V77.0725C78.4146 78.2886 79.4001 79.2741 80.6162 79.2741C81.8323 79.2741 82.8179 78.2886 82.8179 77.0725C82.8185 75.2057 84.3372 73.6869 86.204 73.6869Z" fill="#F3F4F4" fill-opacity="0.8"/>
<path d="M36.0085 53.1187H6.60469C5.39062 53.1187 4.40303 52.1312 4.40303 50.9171V6.60469C4.40303 5.39062 5.39062 4.40303 6.60469 4.40303H105.37C106.586 4.40303 107.571 3.41748 107.571 2.20137C107.571 0.985254 106.586 0 105.37 0H6.60469C2.96279 0 0 2.96279 0 6.60469V50.9171C0 54.5587 2.96279 57.5218 6.60469 57.5218H36.0085C37.2243 57.5218 38.2102 56.5362 38.2102 55.3201C38.2102 54.104 37.2246 53.1187 36.0085 53.1187Z" fill="#F3F4F4" fill-opacity="0.8"/>
<path d="M89.4882 27.1072C90.7816 25.8466 91.2387 23.9962 90.6803 22.2782C90.1222 20.5603 88.6646 19.3315 86.877 19.0717L81.7509 18.327C81.6504 18.3123 81.5634 18.2493 81.5183 18.1582L79.2255 13.5129C78.4263 11.8931 76.8076 10.8867 75.0009 10.8867C73.1944 10.8867 71.5755 11.8928 70.776 13.5129L68.4832 18.1585C68.4381 18.2493 68.3514 18.3126 68.2515 18.327L63.1242 19.0717C61.3365 19.3315 59.8793 20.5603 59.3212 22.2782C58.7631 23.9962 59.2198 25.8466 60.5133 27.1072L64.2231 30.7236C64.2958 30.7945 64.3289 30.8962 64.3116 30.9964L63.4359 36.1022C63.1307 37.8823 63.8487 39.648 65.3101 40.7098C66.7714 41.7718 68.6727 41.9092 70.2718 41.0686L74.8573 38.6578C74.947 38.6103 75.0542 38.6103 75.1438 38.6578L79.7297 41.0686C80.4252 41.434 81.1775 41.6147 81.9264 41.6147C82.899 41.6147 83.8655 41.3098 84.6914 40.7098C86.1524 39.648 86.8705 37.8823 86.5649 36.1022L85.6895 30.9964C85.6723 30.8965 85.7054 30.7945 85.778 30.7236L89.4882 27.1072ZM82.7048 27.571C81.5941 28.6535 81.0876 30.2124 81.3501 31.7408L82.2258 36.8473C82.2343 36.8988 82.258 37.0359 82.103 37.1481C81.9486 37.2606 81.8244 37.1956 81.7784 37.1716L77.1932 34.761C76.5064 34.3998 75.7538 34.2196 75.0006 34.2196C74.2477 34.2196 73.4947 34.4001 72.8083 34.7607L68.223 37.1716C68.1768 37.1956 68.0534 37.2612 67.8981 37.1481C67.7432 37.0356 67.7666 36.8985 67.7757 36.847L68.6514 31.7408C68.9136 30.2121 68.407 28.6532 67.2964 27.571L63.5868 23.9549C63.5493 23.9183 63.4497 23.821 63.5086 23.6391C63.5678 23.4568 63.7058 23.4366 63.7573 23.4293L68.8846 22.6846C70.4194 22.4613 71.7451 21.4975 72.4312 20.1073L74.724 15.462C74.7472 15.4148 74.8087 15.2903 75.0003 15.2903C75.1919 15.2903 75.2531 15.4151 75.2766 15.462L77.5693 20.107C78.2552 21.4978 79.5814 22.4613 81.1169 22.6849L86.2433 23.4296C86.2951 23.4372 86.4331 23.4571 86.492 23.6394C86.5512 23.8213 86.4516 23.9186 86.4141 23.9552L82.7048 27.571Z" fill="#A78F69"/>
<path d="M42.6683 36.1025L41.7926 30.9967C41.7753 30.8968 41.8084 30.7948 41.8813 30.7239L45.5909 27.1075C46.8844 25.8469 47.3411 23.9965 46.783 22.2785C46.2249 20.5606 44.7677 19.3318 42.9797 19.072L37.8533 18.3273C37.7528 18.3126 37.6661 18.2496 37.621 18.1585L35.3282 13.5132C34.5287 11.8934 32.91 10.887 31.1036 10.887C29.2972 10.887 27.6782 11.8931 26.8787 13.5132L24.5862 18.1585C24.5411 18.2496 24.4541 18.3126 24.3542 18.3273L19.2272 19.072C17.4395 19.3318 15.9823 20.5606 15.4242 22.2785C14.8661 23.9965 15.3228 25.8469 16.6163 27.1075L20.3262 30.7239C20.3988 30.7948 20.4319 30.8965 20.4146 30.9967L19.539 36.1025C19.2337 37.8829 19.9517 39.6486 21.4131 40.7101C22.8747 41.7724 24.7758 41.9092 26.3748 41.069L30.9603 38.6581C31.05 38.6109 31.1572 38.6109 31.2472 38.6581L35.833 41.069C36.5285 41.4343 37.2808 41.615 38.0297 41.615C39.0023 41.615 39.9688 41.3101 40.7947 40.7101C42.2555 39.6483 42.9735 37.8826 42.6683 36.1025ZM38.8081 27.5707C37.6972 28.6532 37.1906 30.2121 37.4528 31.7408L38.3285 36.847C38.3373 36.8985 38.361 37.0357 38.206 37.1482C38.0514 37.2612 37.9277 37.1956 37.8814 37.1716L33.2959 34.7607C32.6095 34.3998 31.8565 34.2196 31.1036 34.2196C30.3507 34.2196 29.5975 34.4001 28.9113 34.7607L24.3261 37.1716C24.2798 37.1956 24.1564 37.2609 24.0015 37.1482C23.8465 37.0359 23.8699 36.8985 23.879 36.847L24.7547 31.7408C25.0169 30.2121 24.5103 28.6532 23.3997 27.571L19.6901 23.9546C19.6526 23.918 19.553 23.8207 19.6119 23.6388C19.6711 23.4565 19.8091 23.4363 19.8606 23.429L24.9879 22.6843C26.5225 22.461 27.8484 21.4975 28.5349 20.107L30.8276 15.4617C30.8508 15.4146 30.9123 15.29 31.1039 15.29C31.2955 15.29 31.357 15.4148 31.3802 15.4617L33.6729 20.1067C34.3591 21.4975 35.6848 22.461 37.2202 22.6846L42.3469 23.4293C42.3987 23.4369 42.5364 23.4568 42.5956 23.6391C42.6548 23.821 42.5552 23.9183 42.5177 23.9549L38.8081 27.5707Z" fill="#A78F69"/>
<path d="M133.385 27.1072C134.679 25.8466 135.136 23.9962 134.578 22.2782C134.019 20.5603 132.562 19.3315 130.774 19.0717L125.648 18.327C125.547 18.3123 125.461 18.2493 125.416 18.1582L123.123 13.5129C122.323 11.8931 120.705 10.8867 118.898 10.8867C117.092 10.8867 115.473 11.8928 114.673 13.5129L112.381 18.1579C112.335 18.249 112.249 18.3123 112.148 18.327L107.021 19.0717C105.233 19.3315 103.777 20.5603 103.218 22.2785C102.66 23.9965 103.117 25.8469 104.411 27.1072L108.12 30.7236C108.193 30.7945 108.226 30.8962 108.209 30.9964L107.333 36.1022C107.028 37.8826 107.746 39.6483 109.207 40.7101C110.668 41.7721 112.569 41.9095 114.169 41.0689L118.754 38.6581C118.844 38.6112 118.951 38.6106 119.041 38.6581L123.627 41.0689C124.322 41.4343 125.075 41.615 125.823 41.615C126.796 41.615 127.763 41.3101 128.588 40.7101C130.049 39.6483 130.767 37.8826 130.462 36.1025L129.587 30.9967C129.569 30.8968 129.602 30.7948 129.675 30.7239L133.385 27.1072ZM126.602 27.571C125.491 28.6535 124.985 30.2124 125.247 31.7408L126.123 36.8473C126.132 36.8988 126.155 37.0359 126 37.1481C125.846 37.2606 125.722 37.1956 125.676 37.1716L121.09 34.761C120.404 34.3998 119.651 34.2196 118.898 34.2196C118.145 34.2196 117.392 34.4001 116.706 34.7607L112.12 37.1716C112.074 37.1956 111.951 37.2609 111.796 37.1481C111.641 37.0359 111.664 36.8988 111.673 36.847L112.548 31.7417C112.811 30.213 112.305 28.6538 111.194 27.571L107.484 23.9543C107.447 23.918 107.347 23.8207 107.406 23.6388C107.466 23.4565 107.604 23.4363 107.655 23.429L112.782 22.6843C114.317 22.461 115.642 21.4975 116.329 20.107L118.622 15.4617C118.645 15.4146 118.707 15.29 118.898 15.29C119.09 15.29 119.151 15.4148 119.174 15.4617L121.467 20.1067C122.153 21.4975 123.479 22.461 125.015 22.6846L130.141 23.4293C130.193 23.4369 130.331 23.4568 130.39 23.6391C130.449 23.821 130.349 23.9183 130.312 23.9549L126.602 27.571Z" fill="#F3F4F4" fill-opacity="0.8"/>
</g>
<defs>
<clipPath id="clip0">
<rect width="150" height="150" fill="white"/>
</clipPath>
</defs>
</svg>
