<svg width="30" height="30" viewBox="0 0 30 30" fill="none" xmlns="http://www.w3.org/2000/svg">
<g clip-path="url(#clip0)">
<path d="M29.9213 11.5068C29.7238 10.8993 29.185 10.4692 28.5501 10.4118L19.8899 9.62554L16.4674 1.61272C16.2147 1.02402 15.6398 0.644073 14.9998 0.644073C14.3598 0.644073 13.7846 1.02402 13.5336 1.61272L10.111 9.62554L1.44954 10.4118C0.814607 10.4704 0.276955 10.9004 0.0782818 11.5068C-0.119247 12.1142 0.0631753 12.7805 0.543377 13.2016L7.08974 18.9419L5.15954 27.4431C5.01832 28.0682 5.26094 28.7146 5.77959 29.0895C6.05838 29.2921 6.38591 29.3932 6.71459 29.3932C6.99704 29.3932 7.27971 29.3182 7.53217 29.1671L14.9998 24.702L22.466 29.1671C23.0138 29.4944 23.7025 29.4644 24.22 29.0895C24.7386 28.7146 24.9813 28.0682 24.84 27.4431L22.9099 18.9419L29.4562 13.2016C29.9362 12.7805 30.1188 12.1156 29.9213 11.5068Z" fill="#919D99"/>
</g>
<defs>
<clipPath id="clip0">
<rect width="30" height="30" fill="white"/>
</clipPath>
</defs>
</svg>
