<svg width="150" height="150" viewBox="0 0 150 150" fill="none" xmlns="http://www.w3.org/2000/svg">
<path d="M139.266 47.4375L121.523 68.5312L90.6328 105.469L72.6562 113.156L77.3438 94.1719L114.258 50.0625L125.977 36.2109C126.468 35.6251 127.071 35.1421 127.75 34.7896C128.428 34.437 129.17 34.2219 129.932 34.1566C130.694 34.0913 131.462 34.177 132.191 34.4089C132.919 34.6408 133.595 35.0142 134.18 35.5078L138.633 39.2344C139.8 40.241 140.522 41.6685 140.641 43.2055C140.759 44.7424 140.265 46.2638 139.266 47.4375Z" fill="#A78F69"/>
<path d="M107.812 27.7266V138.281C107.812 139.524 107.319 140.717 106.44 141.596C105.56 142.475 104.368 142.969 103.125 142.969H14.0625C12.8193 142.969 11.627 142.475 10.7479 141.596C9.86886 140.717 9.375 139.524 9.375 138.281V11.7188C9.375 10.4755 9.86886 9.28327 10.7479 8.40419C11.627 7.52511 12.8193 7.03125 14.0625 7.03125H87.1172C87.7357 7.03076 88.3483 7.1527 88.9195 7.39003C89.4907 7.62736 90.0092 7.97539 90.4453 8.41406L106.43 24.3984C106.868 24.8345 107.216 25.3531 107.454 25.9243C107.691 26.4955 107.813 27.108 107.812 27.7266Z" fill="white"/>
<path d="M107.812 46.875V95.8594L94.9453 111.188L71.2265 121.477C70.4278 121.822 69.5486 121.939 68.6873 121.813C67.8261 121.688 67.0168 121.325 66.3502 120.765C65.6835 120.206 65.1858 119.472 64.9129 118.645C64.6399 117.819 64.6024 116.932 64.8047 116.086L70.8047 90.9141L107.812 46.875ZM107.812 27.7266V32.8125H86.7187C85.4755 32.8125 84.2832 32.3186 83.4042 31.4396C82.5251 30.5605 82.0312 29.3682 82.0312 28.125V7.03125H87.1172C87.7357 7.03076 88.3482 7.1527 88.9194 7.39003C89.4906 7.62736 90.0092 7.97539 90.4453 8.41406L106.43 24.3984C106.868 24.8345 107.216 25.3531 107.454 25.9243C107.691 26.4955 107.813 27.108 107.812 27.7266Z" fill="#E6E6E6"/>
<path d="M121.523 68.5781L90.6328 105.469L72.6562 113.156L77.3438 94.1719L114.258 50.0625C118.183 55.5335 120.68 61.8978 121.523 68.5781Z" fill="#A78F69"/>
<path d="M89.0625 7.03125V25.7812H107.812L89.0625 7.03125Z" fill="#919D99"/>
<path d="M139.266 47.4375L133.594 54.1172L120.234 42.8906L125.836 36.2109C126.328 35.6251 126.93 35.1421 127.609 34.7896C128.288 34.437 129.029 34.2219 129.792 34.1566C130.554 34.0913 131.321 34.177 132.05 34.4089C132.779 34.6408 133.455 35.0142 134.039 35.5078L138.492 39.2344C139.68 40.2211 140.429 41.6385 140.574 43.1761C140.719 44.7137 140.248 46.2461 139.266 47.4375ZM51.5625 32.8125H77.3438C77.9654 32.8125 78.5615 32.5656 79.001 32.126C79.4406 31.6865 79.6875 31.0904 79.6875 30.4688C79.6875 29.8471 79.4406 29.251 79.001 28.8115C78.5615 28.3719 77.9654 28.125 77.3438 28.125H51.5625C50.9409 28.125 50.3448 28.3719 49.9052 28.8115C49.4657 29.251 49.2188 29.8471 49.2188 30.4688C49.2188 31.0904 49.4657 31.6865 49.9052 32.126C50.3448 32.5656 50.9409 32.8125 51.5625 32.8125ZM49.2188 60.9375H91.4063C92.0279 60.9375 92.624 60.6906 93.0635 60.251C93.5031 59.8115 93.75 59.2154 93.75 58.5938C93.75 57.9721 93.5031 57.376 93.0635 56.9365C92.624 56.4969 92.0279 56.25 91.4063 56.25H49.2188C48.5971 56.25 48.001 56.4969 47.5615 56.9365C47.1219 57.376 46.875 57.9721 46.875 58.5938C46.875 59.2154 47.1219 59.8115 47.5615 60.251C48.001 60.6906 48.5971 60.9375 49.2188 60.9375Z" fill="#919D99"/>
<path d="M67.9688 86.7188C67.9688 86.0971 67.7218 85.501 67.2823 85.0615C66.8427 84.6219 66.2466 84.375 65.625 84.375H49.2188C48.5971 84.375 48.001 84.6219 47.5615 85.0615C47.1219 85.501 46.875 86.0971 46.875 86.7188C46.875 87.3404 47.1219 87.9365 47.5615 88.376C48.001 88.8156 48.5971 89.0625 49.2188 89.0625H65.625C66.2466 89.0625 66.8427 88.8156 67.2823 88.376C67.7218 87.9365 67.9688 87.3404 67.9688 86.7188Z" fill="#A78F69"/>
<path d="M39.8438 77.3438H25.7812C25.1596 77.3438 24.5635 77.5907 24.124 78.0302C23.6844 78.4698 23.4375 79.0659 23.4375 79.6875V93.75C23.4375 94.3716 23.6844 94.9677 24.124 95.4073C24.5635 95.8468 25.1596 96.0938 25.7812 96.0938H39.8438C40.4654 96.0938 41.0615 95.8468 41.501 95.4073C41.9406 94.9677 42.1875 94.3716 42.1875 93.75V79.6875C42.1875 79.0659 41.9406 78.4698 41.501 78.0302C41.0615 77.5907 40.4654 77.3438 39.8438 77.3438ZM37.5 91.4062H28.125V82.0312H37.5V91.4062Z" fill="#919D99"/>
<path d="M58.5938 112.5H49.2188C48.5971 112.5 48.001 112.747 47.5615 113.186C47.1219 113.626 46.875 114.222 46.875 114.844C46.875 115.465 47.1219 116.061 47.5615 116.501C48.001 116.941 48.5971 117.188 49.2188 117.188H58.5938C59.2154 117.188 59.8115 116.941 60.251 116.501C60.6906 116.061 60.9375 115.465 60.9375 114.844C60.9375 114.222 60.6906 113.626 60.251 113.186C59.8115 112.747 59.2154 112.5 58.5938 112.5Z" fill="#A78F69"/>
<path d="M39.8438 105.469H25.7812C25.1596 105.469 24.5635 105.716 24.124 106.155C23.6844 106.595 23.4375 107.191 23.4375 107.812V121.875C23.4375 122.497 23.6844 123.093 24.124 123.532C24.5635 123.972 25.1596 124.219 25.7812 124.219H39.8438C40.4654 124.219 41.0615 123.972 41.501 123.532C41.9406 123.093 42.1875 122.497 42.1875 121.875V107.812C42.1875 107.191 41.9406 106.595 41.501 106.155C41.0615 105.716 40.4654 105.469 39.8438 105.469ZM37.5 119.531H28.125V110.156H37.5V119.531Z" fill="#919D99"/>
<path d="M31.1484 67.2891C31.3674 67.5063 31.6272 67.6781 31.9127 67.7948C32.1983 67.9114 32.5041 67.9705 32.8125 67.9688H33.1875C33.5523 67.9078 33.8975 67.7613 34.1949 67.5413C34.4923 67.3214 34.7334 67.0341 34.8984 66.7031L41.9297 52.6406C42.0959 52.3645 42.2033 52.057 42.2453 51.7375C42.2872 51.4179 42.2628 51.0931 42.1736 50.7834C42.0844 50.4737 41.9323 50.1858 41.7267 49.9375C41.5212 49.6893 41.2666 49.4861 40.979 49.3407C40.6914 49.1952 40.3769 49.1107 40.0551 49.0923C39.7333 49.0739 39.4112 49.1221 39.1089 49.2339C38.8066 49.3456 38.5306 49.5185 38.2981 49.7417C38.0656 49.9649 37.8817 50.2337 37.7578 50.5313L32.1797 61.6875L27.4922 57C27.2737 56.7815 27.0142 56.6081 26.7287 56.4899C26.4432 56.3716 26.1372 56.3107 25.8281 56.3107C25.5191 56.3107 25.2131 56.3716 24.9275 56.4899C24.642 56.6081 24.3826 56.7815 24.1641 57C23.9455 57.2185 23.7722 57.478 23.6539 57.7635C23.5357 58.049 23.4748 58.355 23.4748 58.6641C23.4748 58.9731 23.5357 59.2791 23.6539 59.5647C23.7722 59.8502 23.9455 60.1096 24.1641 60.3281L31.1484 67.2891ZM31.1484 39.1641C31.3674 39.3813 31.6272 39.5531 31.9127 39.6698C32.1983 39.7864 32.5041 39.8455 32.8125 39.8438H33.1875C33.5523 39.7828 33.8975 39.6363 34.1949 39.4163C34.4923 39.1964 34.7334 38.9091 34.8984 38.5781L41.9297 24.5156C42.0959 24.2395 42.2033 23.932 42.2453 23.6125C42.2872 23.2929 42.2628 22.9681 42.1736 22.6584C42.0844 22.3487 41.9323 22.0608 41.7267 21.8125C41.5212 21.5643 41.2666 21.3611 40.979 21.2157C40.6914 21.0702 40.3769 20.9857 40.0551 20.9673C39.7333 20.9489 39.4112 20.9971 39.1089 21.1089C38.8066 21.2206 38.5306 21.3935 38.2981 21.6167C38.0656 21.8399 37.8817 22.1087 37.7578 22.4063L32.1797 33.5625L27.4922 28.875C27.0509 28.4337 26.4523 28.1857 25.8281 28.1857C25.204 28.1857 24.6054 28.4337 24.1641 28.875C23.7227 29.3163 23.4748 29.9149 23.4748 30.5391C23.4748 31.1632 23.7227 31.7618 24.1641 32.2031L31.1484 39.1641Z" fill="#A78F69"/>
<path d="M90.6329 105.398L72.7266 113.156L77.2501 94.1719L90.6329 105.398Z" fill="white"/>
<path d="M142.969 42.9844C142.872 41.9232 142.565 40.8919 142.066 39.9504C141.567 39.0089 140.886 38.1759 140.063 37.5L135.586 33.75C133.929 32.3618 131.789 31.6882 129.635 31.8772C127.482 32.0662 125.492 33.1023 124.102 34.7578L118.477 41.4375L110.156 51.3281V27.7266C110.155 25.8624 109.413 24.0752 108.094 22.7578L92.0859 6.75C90.7686 5.43101 88.9814 4.68914 87.1172 4.6875H14.0625C12.1977 4.6875 10.4093 5.42829 9.09066 6.74691C7.77204 8.06552 7.03125 9.85395 7.03125 11.7188V138.281C7.03125 140.146 7.77204 141.934 9.09066 143.253C10.4093 144.572 12.1977 145.312 14.0625 145.312H103.125C104.99 145.312 106.778 144.572 108.097 143.253C109.415 141.934 110.156 140.146 110.156 138.281V85.7812L141.07 48.9375C141.763 48.1187 142.286 47.1714 142.612 46.1499C142.938 45.1284 143.059 44.0527 142.969 42.9844ZM91.4063 12.6797L102.164 23.4375H91.4063V12.6797ZM105.469 138.281C105.469 138.903 105.222 139.499 104.782 139.939C104.343 140.378 103.747 140.625 103.125 140.625H14.0625C13.4409 140.625 12.8448 140.378 12.4052 139.939C11.9657 139.499 11.7188 138.903 11.7188 138.281V11.7188C11.7188 11.0971 11.9657 10.501 12.4052 10.0615C12.8448 9.62193 13.4409 9.375 14.0625 9.375H86.7188V25.7812C86.7188 26.4029 86.9657 26.999 87.4052 27.4385C87.8448 27.8781 88.4409 28.125 89.0625 28.125H105.469V56.25C105.448 56.4291 105.448 56.61 105.469 56.7891L75.4688 92.6719C75.2452 92.9281 75.0846 93.2331 75 93.5625L70.4766 112.547C70.3747 112.971 70.3932 113.415 70.5298 113.829C70.6664 114.243 70.9158 114.611 71.25 114.891C71.6684 115.248 72.1995 115.448 72.75 115.453C73.0712 115.447 73.3888 115.384 73.6875 115.266L91.5938 107.484C91.9194 107.34 92.208 107.124 92.4375 106.852L105.469 91.4062V138.281ZM78.6563 98.4375L86.2266 104.789L76.1016 109.195L78.6563 98.4375ZM90.375 102.141L80.5781 93.9375L120.563 46.1953L130.359 54.4219L90.375 102.141ZM137.484 45.8906L133.359 50.8125L123.586 42.6094L127.688 37.7109C128.283 37.009 129.133 36.5709 130.05 36.4919C130.967 36.4129 131.879 36.6994 132.586 37.2891L137.039 41.0391C137.741 41.635 138.179 42.4841 138.258 43.4015C138.337 44.3188 138.051 45.2303 137.461 45.9375L137.484 45.8906Z" fill="#4E5B5F"/>
</svg>
