<svg width="150" height="150" viewBox="0 0 150 150" fill="none" xmlns="http://www.w3.org/2000/svg">
<path d="M112.5 7.5H37.5C30.885 7.5 25.5 12.885 25.5 19.5V115.5C25.5 122.115 30.885 127.5 37.5 127.5H85.5V130.5C85.5 137.115 90.885 142.5 97.5 142.5C104.115 142.5 109.5 137.115 109.5 130.5V127.5H112.5C119.115 127.5 124.5 122.115 124.5 115.5V19.5C124.5 12.885 119.115 7.5 112.5 7.5ZM64.5 13.5H85.5V22.5H64.5V13.5ZM103.5 130.5C103.5 133.815 100.815 136.5 97.5 136.5C94.185 136.5 91.5 133.815 91.5 130.5V118.5H103.5V130.5ZM103.5 112.5H91.5V79.5H103.5V112.5ZM103.5 73.5H91.5V71.115L97.5 57.12L103.5 71.115V73.5ZM118.5 115.5C118.5 118.815 115.815 121.5 112.5 121.5H109.5V70.5C109.5 70.095 109.425 69.69 109.26 69.315L100.26 48.315C99.78 47.22 98.7 46.5 97.5 46.5C96.3 46.5 95.22 47.22 94.74 48.315L85.74 69.315C85.575 69.69 85.5 70.095 85.5 70.5V121.5H37.5C34.185 121.5 31.5 118.815 31.5 115.5V19.5C31.5 16.185 34.185 13.5 37.5 13.5H58.5V25.5C58.5 27.15 59.85 28.5 61.5 28.5H88.5C90.15 28.5 91.5 27.15 91.5 25.5V13.5H112.5C115.815 13.5 118.5 16.185 118.5 19.5V115.5ZM52.5 40.5C52.5 42.15 51.15 43.5 49.5 43.5H43.5C41.85 43.5 40.5 42.15 40.5 40.5C40.5 38.85 41.85 37.5 43.5 37.5H49.5C51.15 37.5 52.5 38.85 52.5 40.5ZM109.5 40.5C109.5 42.15 108.15 43.5 106.5 43.5H64.5C62.85 43.5 61.5 42.15 61.5 40.5C61.5 38.85 62.85 37.5 64.5 37.5H106.5C108.15 37.5 109.5 38.85 109.5 40.5ZM52.5 55.5C52.5 57.15 51.15 58.5 49.5 58.5H43.5C41.85 58.5 40.5 57.15 40.5 55.5C40.5 53.85 41.85 52.5 43.5 52.5H49.5C51.15 52.5 52.5 53.85 52.5 55.5ZM82.5 55.5C82.5 57.15 81.15 58.5 79.5 58.5H64.5C62.85 58.5 61.5 57.15 61.5 55.5C61.5 53.85 62.85 52.5 64.5 52.5H79.5C81.15 52.5 82.5 53.85 82.5 55.5ZM52.5 70.5C52.5 72.15 51.15 73.5 49.5 73.5H43.5C41.85 73.5 40.5 72.15 40.5 70.5C40.5 68.85 41.85 67.5 43.5 67.5H49.5C51.15 67.5 52.5 68.85 52.5 70.5ZM76.5 70.5C76.5 72.15 75.15 73.5 73.5 73.5H64.5C62.85 73.5 61.5 72.15 61.5 70.5C61.5 68.85 62.85 67.5 64.5 67.5H73.5C75.15 67.5 76.5 68.85 76.5 70.5ZM52.5 85.5C52.5 87.15 51.15 88.5 49.5 88.5H43.5C41.85 88.5 40.5 87.15 40.5 85.5C40.5 83.85 41.85 82.5 43.5 82.5H49.5C51.15 82.5 52.5 83.85 52.5 85.5ZM76.5 85.5C76.5 87.15 75.15 88.5 73.5 88.5H64.5C62.85 88.5 61.5 87.15 61.5 85.5C61.5 83.85 62.85 82.5 64.5 82.5H73.5C75.15 82.5 76.5 83.85 76.5 85.5Z" fill="#F3F4F4" fill-opacity="0.8"/>
</svg>
